<svg width="500" height="500" fill="none" xmlns="http://www.w3.org/2000/svg"><path fill="#fff" d="M0 0h500v500H0z"/><path fill="#FFEAFF" d="M0 0h500v500H0z"/><circle cx="250.5" cy="249.5" r="58.8479" fill="url(#a)"/><path fill-rule="evenodd" clip-rule="evenodd" d="M195.256 301.19c-9.964 7.68-16.383 19.733-16.383 33.286v54.67c0 23.196 18.804 42 42 42h58.108c23.196 0 42-18.804 42-42v-54.67c0-13.553-6.419-25.606-16.383-33.286-13.033 15.682-32.686 25.667-54.671 25.667s-41.638-9.985-54.671-25.667Z" fill="url(#b)"/><path fill-rule="evenodd" clip-rule="evenodd" d="M159.64 311.377c-4.5 3.21-10.798 2.114-13.52-2.697-9.791-17.306-15.38-37.304-15.38-58.607 0-65.825 53.362-119.187 119.187-119.187 65.825 0 119.187 53.362 119.187 119.187 0 21.554-5.721 41.771-15.727 59.216-2.557 4.458-8.375 5.55-12.636 2.676-4.32-2.914-5.379-8.78-2.822-13.32 8.181-14.522 12.849-31.289 12.849-49.145 0-55.382-44.896-100.278-100.278-100.278-55.382 0-100.278 44.896-100.278 100.278 0 17.41 4.437 33.784 12.241 48.052 2.573 4.704 1.541 10.711-2.823 13.825Z" fill="url(#c)"/><path fill-rule="evenodd" clip-rule="evenodd" d="M160.977 394.632c-2.693 4.759-8.815 6.352-13.307 3.233C100.732 365.271 70 310.974 70 249.5 70 149.813 150.813 69 250.5 69S431 149.813 431 249.5c0 61.308-30.566 115.477-77.29 148.1-4.641 3.24-10.979 1.593-13.767-3.334-2.626-4.641-1.119-10.501 3.219-13.603 40.689-29.103 67.209-76.749 67.209-130.59 0-88.611-71.833-160.4444-160.444-160.4444-88.611 0-160.4445 71.8334-160.4445 160.4444 0 54.33 27.0045 102.353 68.3225 131.379 4.239 2.977 5.723 8.671 3.172 13.18Z" fill="url(#d)"/><defs><linearGradient id="a" x1="250.5" y1="190.652" x2="250.5" y2="308.348" gradientUnits="userSpaceOnUse"><stop stop-color="#C66CFF"/><stop offset="1" stop-color="#F582FF"/></linearGradient><linearGradient id="b" x1="249.927" y1="301.19" x2="249.927" y2="431.146" gradientUnits="userSpaceOnUse"><stop stop-color="#C66CFF"/><stop offset="1" stop-color="#F582FF"/></linearGradient><linearGradient id="c" x1="249.927" y1="130.886" x2="249.927" y2="313.557" gradientUnits="userSpaceOnUse"><stop stop-color="#C66CFF"/><stop offset="1" stop-color="#F582FF"/></linearGradient><linearGradient id="d" x1="250.5" y1="69" x2="250.5" y2="399.474" gradientUnits="userSpaceOnUse"><stop stop-color="#C66CFF"/><stop offset="1" stop-color="#F582FF"/></linearGradient></defs></svg>
