<svg width="250" height="250" fill="none" xmlns="http://www.w3.org/2000/svg"><path fill-rule="evenodd" clip-rule="evenodd" d="M157.034 9.1052c0-3.849-4.167-6.25464-7.5-4.33014L100.199 33.2586c-3.3336 1.9245-3.3336 6.7357 0 8.6602l49.335 28.4835c3.333 1.9245 7.5-.4811 7.5-4.3301V49.5206c28.317 12.3616 48.109 40.6118 48.109 73.4844 0 44.262-35.881 80.143-80.143 80.143-44.2617 0-80.1429-35.881-80.1429-80.143 0-21.416 8.4003-40.8701 22.0857-55.2471 3.624-3.8072 4.1911-9.7918.7774-13.7887-3.3473-3.9191-9.2606-4.4482-12.8961-.7948C37.0099 71.076 26 95.7549 26 123.005c0 54.676 44.3238 99 99 99 54.676 0 99-44.324 99-99 0-42.9889-27.4-79.5782-65.689-93.2562-.425-.1517-.852-.267-1.277-.3478V9.1052Z" fill="#fff"/><path d="M93.88 87.58c.5133-.1467.99-.2567 1.43-.33.44-.1467.88-.2567 1.32-.33.5133-.1467 1.1367-.22 1.87-.22.8067-.0733 1.54-.0367 2.2.11.733.0733 1.393.2933 1.98.66.66.2933 1.137.77 1.43 1.43.293.7333.477 1.6133.55 2.64.147.9533.22 1.9433.22 2.97 0 1.0267-.037 2.0533-.11 3.08v61.38c.073.807.073 1.65 0 2.53-.073.88-.293 1.723-.66 2.53-.367.733-.917 1.357-1.65 1.87-1.027.807-2.42 1.21-4.18 1.21-1.6867.073-3.1533-.11-4.4-.55-1.32-.44-2.1267-1.283-2.42-2.53-.22-1.247-.33-2.493-.33-3.74-.5133-9.68-.77-19.14-.77-28.38.0733-9.313.11-18.883.11-28.71-.1467.367-.66.697-1.54.99-.8067.293-1.76.55-2.86.77-1.0267.22-2.0167.403-2.97.55-.9533.147-1.5767.22-1.87.22-1.9067.22-3.6667.037-5.28-.55-1.54-.66-2.42-2.127-2.64-4.4-.2933-2.3467.22-4.18 1.54-5.5 1.3933-1.32 3.1533-2.31 5.28-2.97 2.3467-.8067 4.62-1.6133 6.82-2.42 2.2733-.88 4.5833-1.65 6.93-2.31Zm33.675 2.53c.66-.66 1.503-1.0633 2.53-1.21 1.1-.22 2.383-.33 3.85-.33H164.295c1.246-.0733 2.42 0 3.52.22s2.053.6233 2.86 1.21c.88.5133 1.503 1.3567 1.87 2.53.22.7333.293 1.5767.22 2.53 0 .9533-.184 1.87-.55 2.75-.294.8067-.77 1.54-1.43 2.2-.66.587-1.467.917-2.42.99-1.907.367-3.887.477-5.94.33-2.054-.22-4.034-.33-5.94-.33-2.127 0-3.997.073-5.61.22-1.614.147-3.447.22-5.5.22-.807 0-1.834-.037-3.08-.11-1.247-.073-2.2 0-2.86.22-.587.147-1.064.44-1.43.88-.294.44-.514.953-.66 1.54-.147.513-.22 1.063-.22 1.65v1.54c0 1.247-.074 2.53-.22 3.85-.074 1.247-.147 2.493-.22 3.74-.147 1.687.073 2.64.66 2.86.66.147 1.76 0 3.3-.44 2.64-.66 5.353-.99 8.14-.99 3.74 0 7.223.513 10.45 1.54 3.226.953 6.013 2.457 8.36 4.51 2.42 1.98 4.29 4.51 5.61 7.59 1.393 3.007 2.09 6.527 2.09 10.56 0 .733-.037 1.43-.11 2.09 0 .66-.074 1.32-.22 1.98-.587 4.62-2.31 8.69-5.17 12.21-2.86 3.52-6.49 6.05-10.89 7.59-5.207 1.98-10.597 2.897-16.17 2.75-5.574-.22-10.707-1.833-15.4-4.84-1.32-.807-2.53-1.76-3.63-2.86-1.1-1.173-1.907-2.493-2.42-3.96-.587-1.54-.77-3.117-.55-4.73.293-1.687 1.283-2.933 2.97-3.74 1.246-.587 2.383-.77 3.41-.55 1.1.147 2.126.513 3.08 1.1.953.513 1.87 1.173 2.75 1.98.953.733 1.906 1.357 2.86 1.87 1.686.807 3.446 1.503 5.28 2.09 1.833.513 3.776.77 5.83.77 4.546 0 8.176-1.21 10.89-3.63 2.786-2.42 4.18-5.683 4.18-9.79 0-3.96-1.43-7.04-4.29-9.24-2.86-2.273-6.71-3.41-11.55-3.41-1.247 0-2.494.073-3.74.22-1.247.147-2.494.403-3.74.77-1.174.293-2.347.623-3.52.99-1.1.367-2.2.623-3.3.77-1.1.073-2.2-.037-3.3-.33-1.027-.367-2.017-1.137-2.97-2.31-.954-1.027-1.43-2.273-1.43-3.74s.073-2.823.22-4.07c.146-2.127.256-4.253.33-6.38.073-2.127.183-4.253.33-6.38.146-2.127.256-4.217.33-6.27.146-2.1267.293-4.2533.44-6.38.073-1.2467.256-2.2367.55-2.97.293-.7333.696-1.3567 1.21-1.87Z" fill="#fff"/></svg>
