<svg width="41" height="28" viewBox="0 0 41 28" fill="none" xmlns="http://www.w3.org/2000/svg">
    <path d="M2.01474 17.5355C0.062143 15.5829 0.062143 12.4171 2.01474 10.4645L10.9646 1.5149C12.0683 0.4113 13 0 15 0H36C38.7614 0 41 2.2386 41 5V23C41 25.7614 38.7614 28 36 28H15C13 28 12.0683 27.589 10.9646 26.4854L2.01474 17.5355ZM31.5281 18.9497L26.5784 13.9999L31.5281 9.0502L28.9497 6.4717L24 11.4215L19.0502 6.4717L16.4718 9.0502L21.4215 13.9999L16.4718 18.9497L19.0502 21.5281L24 16.5783L28.9497 21.5281L31.5281 18.9497V18.9497Z" fill="#6A6A6A"/>
</svg>
