<svg width="250" height="250" fill="none" xmlns="http://www.w3.org/2000/svg"><g fill="#fff"><path fill-rule="evenodd" clip-rule="evenodd" d="M92.9664 9.10518c0-3.849 4.1666-6.25463 7.4996-4.33013l49.335 28.48345c3.334 1.9245 3.334 6.7358 0 8.6603l-49.335 28.4835c-3.333 1.9245-7.4996-.4811-7.4996-4.3301V49.5206C64.6489 61.8822 44.8571 90.1324 44.8571 123.005c0 44.262 35.8812 80.143 80.1429 80.143 44.262 0 80.143-35.881 80.143-80.143 0-21.416-8.4-40.8701-22.086-55.2471-3.624-3.8072-4.191-9.7918-.777-13.7887 3.347-3.9191 9.26-4.4482 12.896-.7948C212.99 71.076 224 95.7548 224 123.005c0 54.676-44.324 99-99 99-54.6762 0-99-44.324-99-99 0-42.9889 27.4004-79.5783 65.6894-93.2562.4247-.1517.8513-.267 1.277-.3479V9.10518Z"/><path d="M69.27 99.79c-.9533-.88-1.43-2.2-1.43-3.96.0733-.8067.22-1.5767.44-2.31.22-.8067.6233-1.5033 1.21-2.09 1.6133-1.4667 3.3367-2.31 5.17-2.53 1.8333-.22 3.8133-.4033 5.94-.55 1.6867-.0733 3.19-.0733 4.51 0h4.51c2.5667 0 5.3533.0367 8.36.11 3.08.0733 5.977.1833 8.69.33 1.1.0733 2.2.22 3.3.44 1.1.22 2.09.6233 2.97 1.21.88.5133 1.577 1.21 2.09 2.09.587.8067.917 1.8333.99 3.08.073 1.4667-.147 2.86-.66 4.18-.44 1.32-1.063 2.603-1.87 3.85-.807 1.173-1.723 2.31-2.75 3.41-.953 1.027-1.87 1.98-2.75 2.86-1.613 1.687-3.447 3.483-5.5 5.39-2.053 1.907-3.8867 3.703-5.5 5.39 2.86.367 5.61 1.027 8.25 1.98 2.713.953 5.097 2.273 7.15 3.96 2.053 1.687 3.667 3.813 4.84 6.38 1.247 2.493 1.87 5.5 1.87 9.02 0 3.52-.697 6.783-2.09 9.79-1.32 3.007-3.19 5.647-5.61 7.92-2.42 2.2-5.28 3.923-8.58 5.17-3.3 1.247-6.93 1.87-10.89 1.87-1.6867 0-3.52-.147-5.5-.44-1.9067-.293-3.8133-.733-5.72-1.32-1.9067-.587-3.74-1.32-5.5-2.2-1.6867-.953-3.1533-2.09-4.4-3.41-.88-.88-1.65-1.907-2.31-3.08-.5867-1.247-.9533-2.493-1.1-3.74-.0733-1.32.1833-2.493.77-3.52.5867-1.1 1.6133-1.907 3.08-2.42 1.1-.367 2.1633-.513 3.19-.44 1.0267.073 2.0167.33 2.97.77.9533.367 1.87.807 2.75 1.32.9533.513 1.87 1.027 2.75 1.54 2.7133 1.687 5.5367 2.677 8.47 2.97 3.0067.293 5.94-.403 8.8-2.09 1.613-.953 2.787-2.127 3.52-3.52.733-1.467 1.027-2.933.88-4.4-.073-1.467-.55-2.86-1.43-4.18-.807-1.32-1.943-2.42-3.41-3.3-1.3933-.807-2.9333-1.357-4.62-1.65-1.6867-.293-3.3733-.587-5.06-.88-1.6867-.293-3.3-.697-4.84-1.21s-2.86-1.393-3.96-2.64c-1.2467-1.393-1.65-2.897-1.21-4.51.44-1.613 1.2467-3.19 2.42-4.73 1.2467-1.54 2.6033-3.007 4.07-4.4 1.54-1.393 2.75-2.567 3.63-3.52.5133-.513 1.1-1.137 1.76-1.87.7333-.733 1.3933-1.467 1.98-2.2.66-.733 1.21-1.43 1.65-2.09.5133-.733.8433-1.393.99-1.98.22-.587.11-.99-.33-1.21-.44-.293-.99-.44-1.65-.44-.66-.073-1.3933-.073-2.2 0h-9.13c-1.0267 0-2.1633.037-3.41.11-1.2467 0-2.53-.037-3.85-.11-1.2467-.147-2.4933-.367-3.74-.66-1.1733-.293-2.1633-.807-2.97-1.54Zm87.979 66.88c-1.32 0-2.677-.073-4.07-.22-1.32-.22-2.64-.587-3.96-1.1-1.98-.807-3.887-1.87-5.72-3.19-1.76-1.393-3.374-2.933-4.84-4.62-3.52-3.96-6.197-8.617-8.03-13.97-1.834-5.427-2.75-10.927-2.75-16.5 0-7.627 1.466-14.997 4.4-22.11.513-1.247 1.173-2.567 1.98-3.96.88-1.3933 1.833-2.7133 2.86-3.96 1.1-1.32 2.2-2.4933 3.3-3.52 1.173-1.0267 2.346-1.7967 3.52-2.31 1.613-.7333 3.373-1.4667 5.28-2.2 2.346-.7333 4.986-1.0633 7.92-.99 2.933.0733 5.61.4033 8.03.99 3.373.8067 6.27 2.2733 8.69 4.4 2.42 2.0533 4.473 4.5467 6.16 7.48 1.686 2.86 3.006 6.013 3.96 9.46.953 3.373 1.65 6.82 2.09 10.34.293 2.347.403 4.693.33 7.04-.074 2.273-.257 4.583-.55 6.93-.294 2.127-.66 4.253-1.1 6.38-.367 2.127-.88 4.18-1.54 6.16-.66 1.98-1.504 3.887-2.53 5.72-1.027 1.76-2.31 3.41-3.85 4.95-2.787 2.713-5.83 4.84-9.13 6.38-3.227 1.467-6.71 2.273-10.45 2.42Zm-.11-64.13c-1.027 0-2.054.11-3.08.33-.954.147-1.87.513-2.75 1.1-1.027.66-1.944 1.467-2.75 2.42-.807.953-1.504 1.943-2.09 2.97-1.54 2.64-2.604 5.463-3.19 8.47-.587 3.007-.88 6.05-.88 9.13 0 3.153.33 6.417.99 9.79.733 3.373 2.016 6.453 3.85 9.24.88 1.32 1.906 2.493 3.08 3.52 1.246.953 2.676 1.65 4.29 2.09 1.466.367 2.933.477 4.4.33 1.54-.147 2.97-.623 4.29-1.43 2.126-1.32 3.813-3.08 5.06-5.28 1.246-2.2 2.163-4.583 2.75-7.15.66-2.567 1.026-5.207 1.1-7.92.146-2.713.146-5.17 0-7.37-.147-2.2-.514-4.51-1.1-6.93-.587-2.42-1.467-4.62-2.64-6.6-1.1-1.98-2.604-3.593-4.51-4.84-1.834-1.32-4.107-1.943-6.82-1.87Z"/></g></svg>
