<svg width="457" height="457" viewBox="0 0 457 457" fill="none" xmlns="http://www.w3.org/2000/svg">
<rect width="457" height="457" fill="white"/>
<path fill-rule="evenodd" clip-rule="evenodd" d="M69.9438 65.6652C79.2335 65.6652 85.8686 69.8793 85.8688 74.5253C85.8689 79.9673 85.8689 80.794 85.8688 85.48L85.8688 86.4165C85.8687 90.0172 79.2335 94.7485 71.2709 94.7485C69.4562 94.7485 67.6415 94.632 65.9625 94.2949V136.982C65.9625 138.639 64.6194 139.982 62.9625 139.982H61C59.3431 139.982 58 138.639 58 136.982V75.3006C58 75.0345 58.0346 74.7765 58.0996 74.5309C59.0285 68.9091 66.224 65.6652 69.9438 65.6652Z" fill="#8263FF"/>
<rect width="3.98126" height="10.6167" rx="1.99063" transform="matrix(-1 0 0 1 83.2147 74.9547)" fill="white"/>
<path fill-rule="evenodd" clip-rule="evenodd" d="M386.056 65.6652C376.767 65.6652 370.131 69.8793 370.131 74.5253C370.131 79.9673 370.131 80.794 370.131 85.48L370.131 86.4165C370.131 90.0172 376.767 94.7485 384.729 94.7485C386.544 94.7485 388.358 94.632 390.037 94.2949V136.982C390.037 138.639 391.381 139.982 393.037 139.982H395C396.657 139.982 398 138.639 398 136.982V75.3006C398 75.0345 397.965 74.7765 397.9 74.5309C396.971 68.9091 389.776 65.6652 386.056 65.6652Z" fill="#8263FF"/>
<rect x="372.785" y="74.9547" width="3.98126" height="10.6167" rx="1.99063" fill="white"/>
<rect x="135.502" y="38.0616" width="12.74" height="81.9003" rx="6.37002" fill="#8263FF"/>
<rect x="106.837" y="56.1742" width="12.74" height="44.8877" rx="6.37002" fill="#8263FF"/>
<rect x="164.167" y="56.1742" width="12.74" height="44.8877" rx="6.37002" fill="#8263FF"/>
<rect x="192.832" y="38.0616" width="12.74" height="81.9003" rx="6.37002" fill="#8263FF"/>
<rect x="250.162" y="38.0616" width="12.74" height="81.9003" rx="6.37002" fill="#8263FF"/>
<rect x="221.497" y="56.1742" width="12.74" height="44.8877" rx="6.37002" fill="#8263FF"/>
<rect x="278.828" y="56.1742" width="12.74" height="44.8877" rx="6.37002" fill="#8263FF"/>
<rect x="250.162" y="38.0616" width="12.74" height="81.9003" rx="6.37002" fill="#8263FF"/>
<rect x="221.497" y="56.1742" width="12.74" height="44.8877" rx="6.37002" fill="#8263FF"/>
<rect x="278.828" y="56.1742" width="12.74" height="44.8877" rx="6.37002" fill="#8263FF"/>
<rect x="307.493" y="37" width="12.74" height="81.9003" rx="6.37002" fill="#8263FF"/>
<rect x="336.158" y="55.1125" width="12.74" height="44.8877" rx="6.37002" fill="#8263FF"/>
<path d="M149.301 162.793C142.767 169.518 138.512 179.946 140.108 185.084C140.792 187.2 139.5 189.92 135.625 194.378C132.662 197.854 130.231 201.179 130.231 201.784C130.231 202.388 127.192 206.468 123.393 210.851C119.67 215.158 115.871 221.203 114.883 224.15C110.097 238.734 96.3449 259.212 67.9293 293.82C52.05 313.164 52.05 313.239 45.7439 347.923C43.3126 361.373 43.3126 362.204 46.0478 368.174C48.783 374.219 48.783 374.446 46.0478 376.032C36.7785 381.549 35.6389 383.211 36.5506 390.012C37.4623 396.283 37.3104 396.586 32.6757 397.719C26.4456 399.382 21.1272 406.107 23.6344 409.205C25.9138 411.849 31.916 412.907 53.5696 414.494C62.8388 415.174 71.3483 416.308 72.5639 416.988C73.7036 417.743 108.881 418.423 150.669 418.575C255.898 418.877 268.586 419.708 305.891 428.473C330.583 434.367 363.178 434.518 376.17 428.851C379.665 427.34 386.883 426.282 395.392 426.055C410.284 425.678 428.063 420.993 433.229 416.157C439.003 410.716 429.81 402.631 417.882 402.631C411.955 402.631 412.031 403.235 416.666 390.541C418.641 385.176 419.021 380.037 418.413 364.849C417.122 330.543 414.083 319.889 400.787 302.132C397.672 297.976 391.897 289.286 387.947 282.863C384.072 276.44 373.815 261.781 365.305 250.371C347.982 227.173 344.335 221.354 344.715 217.274C346.691 194.756 330.432 185.386 311.057 197.854C304.371 202.161 301.332 203.144 295.026 203.144C287.2 203.144 271.473 207.602 267.446 211.002C264.787 213.118 262.508 210.398 262.432 204.957C262.432 200.877 256.126 194.076 252.403 194.076C250.959 194.076 247.54 191.431 244.729 188.182C233.104 174.656 209.855 163.851 198.687 166.873C192.608 168.46 191.925 168.385 188.202 164.758C176.805 153.952 158.722 152.97 149.301 162.793V162.793ZM214.87 178.132C238.803 189.164 240.702 192.036 235.612 207.753C229.306 227.173 232.193 242.437 242.146 242.437C246.628 242.437 246.628 242.663 241.766 250.9C237.891 257.398 237.511 261.705 239.866 271C240.322 272.813 236.599 273.266 219.125 273.569C207.424 273.795 194.432 274.4 190.253 274.929C184.251 275.684 181.06 275.231 175.058 272.662C170.879 270.848 161.306 268.581 153.784 267.675C109.717 262.083 113.136 212.967 159.254 189.769C188.506 175.034 202.106 172.238 214.87 178.132V178.132ZM324.125 217.727C347.526 233.218 357.328 247.197 353.605 259.665C343.12 294.575 315.692 309.386 269.802 305.003L255.594 303.643L255.138 294.349L254.682 285.13L260 284.148C275.044 281.352 274.74 262.385 259.469 241.001L256.05 236.316L260.152 230.951C266.155 223.168 278.539 213.949 284.161 213.118C286.82 212.74 292.443 211.833 296.622 211.002C309.614 208.584 310.753 208.886 324.125 217.727V217.727ZM132.738 299.638C145.426 305.305 151.581 307.345 171.259 312.635C177.869 314.373 183.339 317.849 197.623 329.259C207.5 337.117 217.909 345.052 220.644 346.714C232.876 354.27 235.536 359.409 234.7 373.992C232.724 408.222 227.33 410.867 159.558 409.507C90.1907 408.147 80.6935 405.2 63.6746 379.962L53.9494 365.605L54.8612 352.759C55.8489 338.855 60.3316 319.511 63.5986 315.128C64.7383 313.617 68.993 308.252 73.0198 303.189L80.3896 294.046L90.4946 294.877C96.041 295.255 103.031 294.953 105.918 294.046C113.136 291.931 117.087 292.686 132.738 299.638V299.638ZM393.341 304.776C405.877 314.902 417.274 373.841 409.144 386.536C408.005 388.349 406.637 391.901 406.105 394.47C405.573 397.039 403.218 401.422 400.863 404.218L396.608 409.28L394.708 403.689C389.162 386.914 364.925 389.709 360.367 407.618C357.783 417.895 364.545 419.33 368.8 409.431C373.435 398.701 384.831 396.208 388.934 405.049C393.265 414.57 369.864 425.904 348.286 424.695C316.452 422.882 274.664 414.192 258.329 405.88C242.146 397.644 239.107 370.214 253.618 363.111C258.025 360.92 267.142 354.421 273.828 348.603C288.568 335.833 290.012 335.077 314.856 327.219C328.608 322.911 336.206 319.587 339.929 316.413C352.921 305.305 385.287 298.278 393.341 304.776V304.776ZM62.6869 393.034C69.8287 401.346 70.0567 405.653 63.2187 405.653C58.5081 405.653 44.6802 390.541 46.0478 386.914C48.0992 381.549 55.0891 384.118 62.6869 393.034Z" fill="url(#paint0_linear_20_132)"/>
<defs>
<linearGradient id="paint0_linear_20_132" x1="93.9793" y1="179.971" x2="434.551" y2="433.603" gradientUnits="userSpaceOnUse">
<stop stop-color="#9671FE"/>
<stop offset="1" stop-color="#6951FF"/>
</linearGradient>
</defs>
</svg>
