<svg width="35" height="35" xmlns="http://www.w3.org/2000/svg" fill="#fff"><path d="M1.6 16.5a1.3 1.3 0 0 1-.2-.015 1.251 1.251 0 0 1-1.04-1.43 17.277 17.277 0 0 1 33-4.014 1.25 1.25 0 1 1-2.3.969 14.777 14.777 0 0 0-28.227 3.431A1.25 1.25 0 0 1 1.6 16.5Z"/><path d="M33.426 13.43h-.01l-9.816-.075a1.25 1.25 0 0 1 .01-2.5h.01l8.568.065.065-8.568A1.25 1.25 0 0 1 33.5 1.111h.009a1.251 1.251 0 0 1 1.241 1.26l-.074 9.818a1.251 1.251 0 0 1-1.25 1.241ZM17.569 34.557A17.315 17.315 0 0 1 1.64 23.963a1.25 1.25 0 1 1 2.3-.969 14.777 14.777 0 0 0 28.222-3.435 1.25 1.25 0 0 1 2.47.39 17.314 17.314 0 0 1-17.063 14.608Z"/><path d="M1.5 33.889h-.009a1.25 1.25 0 0 1-1.241-1.26l.075-9.818a1.251 1.251 0 0 1 1.259-1.241l9.819.076a1.25 1.25 0 0 1-.01 2.5h-.01l-8.568-.066-.065 8.568a1.251 1.251 0 0 1-1.25 1.241Z"/></svg>
